<?xml version="1.0" standalone="no"?>
<!DOCTYPE svg PUBLIC "-//W3C//DTD SVG 20010904//EN"
 "http://www.w3.org/TR/2001/REC-SVG-20010904/DTD/svg10.dtd">
<svg version="1.0" xmlns="http://www.w3.org/2000/svg"
 width="1000.000000pt" height="1000.000000pt" viewBox="0 0 1000.000000 1000.000000"
 preserveAspectRatio="xMidYMid meet">
<metadata>
Created by potrace 1.11, written by Peter Selinger 2001-2013
</metadata>
<g transform="translate(0.000000,1000.000000) scale(0.100000,-0.100000)"
fill="#000000" stroke="none">
<path d="M590 9978 c1 -44 798 -8959 801 -8962 2 -1 811 -230 1797 -509 l1793
-506 1802 506 c991 279 1804 508 1806 509 4 4 801 8918 801 8962 l0 22 -4400
0 -4400 0 0 -22z m7161 -1813 c7 -7 -17 -326 -50 -645 -16 -162 -33 -330 -37
-372 l-6 -78 -2109 0 -2109 0 1 -27 c0 -16 21 -269 47 -563 l47 -535 2013 -3
2014 -2 -6 -38 c-24 -157 -51 -446 -166 -1767 -72 -825 -134 -1522 -138 -1549
l-7 -49 -1080 -298 c-594 -163 -1102 -304 -1128 -312 l-48 -16 -1135 313
c-624 173 -1136 315 -1138 317 -3 4 -137 1712 -136 1732 0 4 245 7 545 7 l544
0 5 -32 c3 -18 21 -215 41 -438 19 -222 38 -407 43 -410 4 -4 280 -80 613
-169 l607 -163 611 165 c337 91 614 167 616 169 5 5 135 1345 135 1389 l0 29
-1909 0 -1910 0 -6 53 c-13 114 -274 3059 -281 3169 l-7 118 1379 3 c3675 6
4141 7 4145 2z"/>
</g>
</svg>
